# xmcd
#
# Track frame offsets: 
#        150
#        8654
#        19261
#        29950
#        40051
#        50317
#        60747
#        73385
#        84930
#        95560
#        107540
#        118041
#
# Disc length: 1696 seconds
#
# Revision: 0
# Processed by: cddbd v1.5.2PL0 Copyright (c) Steve Scherf et al.
# Submitted via: ExactAudioCopyFreeDBPlugin 1.0
#
DISCID=9d069e0c
DTITLE=Porter Wagoner - The Carroll County Accident
DYEAR=1969
DGENRE=Country
TTITLE0=The World Needs A Washin'
TTITLE1=Banks Of The Ohio
TTITLE2=Sing Me Back Home
TTITLE3=Barefoot Nellie
TTITLE4=Sorrow Overtakes The Wine
TTITLE5=Black Jack's Bar
TTITLE6=The Carroll County Accident
TTITLE7=Rocky Top
TTITLE8=Your Mother's Eyes
TTITLE9=King Of The Cannon County Hills
TTITLE10=I Lived So Fast And Hard
TTITLE11=Fallen Leaves
EXTD=
EXTT0=
EXTT1=
EXTT2=
EXTT3=
EXTT4=
EXTT5=
EXTT6=
EXTT7=
EXTT8=
EXTT9=
EXTT10=
EXTT11=
PLAYORDER=
